<?xml version="1.0" encoding="UTF-8" standalone="no"?>
<svg
   xmlns:dc="http://purl.org/dc/elements/1.1/"
   xmlns:cc="http://creativecommons.org/ns#"
   xmlns:rdf="http://www.w3.org/1999/02/22-rdf-syntax-ns#"
   xmlns:svg="http://www.w3.org/2000/svg"
   xmlns="http://www.w3.org/2000/svg"
   xmlns:sodipodi="http://sodipodi.sourceforge.net/DTD/sodipodi-0.dtd"
   xmlns:inkscape="http://www.inkscape.org/namespaces/inkscape"
   width="24"
   height="24"
   viewBox="0 0 24 24"
   fill="none"
   version="1.1"
   id="svg26"
   sodipodi:docname="settings-dark.svg"
   inkscape:version="1.0.2-2 (e86c870879, 2021-01-15)">
  <metadata
     id="metadata32">
    <rdf:RDF>
      <cc:Work
         rdf:about="">
        <dc:format>image/svg+xml</dc:format>
        <dc:type
           rdf:resource="http://purl.org/dc/dcmitype/StillImage" />
        <dc:title></dc:title>
      </cc:Work>
    </rdf:RDF>
  </metadata>
  <defs
     id="defs30" />
  <sodipodi:namedview
     pagecolor="#ffffff"
     bordercolor="#666666"
     borderopacity="1"
     objecttolerance="10"
     gridtolerance="10"
     guidetolerance="10"
     inkscape:pageopacity="0"
     inkscape:pageshadow="2"
     inkscape:window-width="1858"
     inkscape:window-height="1057"
     id="namedview28"
     showgrid="false"
     inkscape:zoom="36.125"
     inkscape:cx="12"
     inkscape:cy="12"
     inkscape:window-x="54"
     inkscape:window-y="-8"
     inkscape:window-maximized="1"
     inkscape:current-layer="svg26" />
  <path
     d="M12 15C13.6569 15 15 13.6569 15 12C15 10.3431 13.6569 9 12 9C10.3431 9 9 10.3431 9 12C9 13.6569 10.3431 15 12 15Z"
     stroke="currentColor"
     stroke-width="1.5"
     stroke-linecap="round"
     stroke-linejoin="round"
     id="path22" />
  <path
     d="M19.6224 10.3954L18.5247 7.7448L20 6L18 4L16.2647 5.48295L13.5578 4.36974L12.9353 2H10.981L10.3491 4.40113L7.70441 5.51596L6 4L4 6L5.45337 7.78885L4.3725 10.4463L2 11V13L4.40111 13.6555L5.51575 16.2997L4 18L6 20L7.79116 18.5403L10.397 19.6123L11 22H13L13.6045 19.6132L16.2551 18.5155C16.6969 18.8313 18 20 18 20L20 18L18.5159 16.2494L19.6139 13.598L21.9999 12.9772L22 11L19.6224 10.3954Z"
     stroke="currentColor"
     stroke-width="1.5"
     stroke-linecap="round"
     stroke-linejoin="round"
     id="path24" />
  <path
     style="fill:#ffffff;stroke-width:0.0276817"
     d="m 10.788146,22.6998 c -0.06513,-0.02034 -0.162526,-0.07062 -0.216425,-0.111727 -0.213592,-0.162915 -0.23215,-0.211092 -0.525012,-1.362967 L 9.772981,20.148493 8.8864905,19.784446 C 8.3989207,19.58422 7.9802411,19.413235 7.9560913,19.404479 c -0.029505,-0.0107 -0.2929123,0.186527 -0.8029766,0.60122 -0.4174873,0.339426 -0.8123238,0.641014 -0.8774145,0.670195 -0.072221,0.03238 -0.1800293,0.05301 -0.2766082,0.05294 C 5.690449,20.728612 5.6691139,20.71166 4.4787272,19.521273 3.2919311,18.334477 3.2713981,18.308714 3.2711667,18.006132 3.2709674,17.744937 3.3461109,17.632029 4.0324772,16.862223 L 4.6601104,16.15829 4.2718752,15.234855 C 4.058346,14.726965 3.8732918,14.300426 3.8606437,14.28699 3.8479956,14.273554 3.3665641,14.13419 2.7907959,13.977292 2.2150277,13.820395 1.7021902,13.669919 1.651157,13.642901 1.5106997,13.568542 1.3477426,13.366629 1.3009098,13.208926 c -0.06077,-0.204636 -0.06077,-2.213216 0,-2.417852 0.051016,-0.171788 0.2221809,-0.372525 0.3810629,-0.446898 0.064534,-0.03021 0.5657782,-0.157944 1.1138751,-0.283855 C 3.3439446,9.9344089 3.8067551,9.8179433 3.8243155,9.8015081 3.875603,9.7535073 4.6095889,7.9264675 4.5901929,7.8950843 4.5805063,7.8794109 4.3026035,7.5341279 3.9726309,7.1277888 3.633934,6.7107059 3.35097,6.335938 3.322823,6.2671593 3.2954011,6.2001525 3.2725867,6.0768166 3.2721244,5.9930796 3.2704635,5.6922918 3.291247,5.6662073 4.4787272,4.4787272 5.6764584,3.280996 5.6908374,3.2696482 6.0077999,3.2719887 c 0.1230328,9.085e-4 0.2031584,0.019859 0.3044982,0.072016 0.076565,0.039406 0.4468056,0.3470961 0.8352247,0.6941161 L 7.8452188,4.6614541 8.7668999,4.2726962 C 9.2738248,4.0588794 9.6992745,3.8738226 9.7123441,3.8614589 c 0.01307,-0.012364 0.1463305,-0.4876338 0.2961349,-1.056156 0.149805,-0.5685221 0.29019,-1.0714024 0.311967,-1.1175117 0.0664,-0.1405855 0.184834,-0.2611504 0.333679,-0.3396711 l 0.141723,-0.074764 h 1.16263 1.162629 l 0.141723,0.074764 c 0.160805,0.08483 0.274406,0.2066208 0.343388,0.3681429 0.02601,0.0609 0.164177,0.5611341 0.30704,1.1116323 l 0.259752,1.0009056 0.978463,0.4031102 0.978462,0.4031101 0.719151,-0.6150885 c 0.395534,-0.3382986 0.776909,-0.6447029 0.847501,-0.6808983 0.09192,-0.04713 0.175786,-0.06616 0.295467,-0.067044 0.317132,-0.00234 0.331392,0.00891 1.529219,1.2067371 1.187136,1.1871361 1.207329,1.2124811 1.20756,1.515628 1.94e-4,0.2541076 -0.08571,0.3883975 -0.740318,1.1573605 -0.328631,0.386039 -0.597512,0.7164496 -0.597512,0.7342458 0,0.017796 0.172553,0.4493512 0.38345,0.959011 l 0.38345,0.9266538 1.049076,0.2678114 c 0.576992,0.147297 1.090831,0.290081 1.141864,0.317298 0.140758,0.07507 0.303481,0.276861 0.350247,0.434338 0.06226,0.209642 0.06062,2.186029 -0.002,2.396842 -0.05207,0.175355 -0.225665,0.376732 -0.38569,0.447429 -0.0609,0.02691 -0.57118,0.168819 -1.133955,0.315366 -0.562776,0.146547 -1.025226,0.268973 -1.027667,0.272056 -0.005,0.0064 -0.724385,1.745053 -0.760074,1.837132 -0.01997,0.05153 0.06193,0.159764 0.586556,0.775086 0.667603,0.783014 0.752749,0.915465 0.752554,1.17066 -2.21e-4,0.303147 -0.02042,0.328492 -1.20756,1.515628 -1.197883,1.197882 -1.212073,1.209079 -1.529306,1.206736 -0.117287,-8.66e-4 -0.204058,-0.02001 -0.290657,-0.06412 -0.0679,-0.03458 -0.360133,-0.270103 -0.649407,-0.523373 -0.810592,-0.709705 -0.90125,-0.782455 -0.951585,-0.763624 -0.02473,0.0093 -0.456282,0.186757 -0.959016,0.39446 l -0.914061,0.377641 -0.258569,1.025849 c -0.142213,0.564216 -0.283139,1.078649 -0.31317,1.143183 -0.07384,0.158687 -0.274601,0.329992 -0.446576,0.381063 -0.192303,0.05711 -2.238248,0.05771 -2.420779,7.09e-4 z m 1.874341,-2.35948 c 0.250608,-1.005335 0.308169,-1.158063 0.488219,-1.295392 0.06472,-0.04937 0.687425,-0.323292 1.507467,-0.663133 1.187913,-0.492294 1.422761,-0.580779 1.567908,-0.590754 0.289768,-0.01991 0.427648,0.0681 1.343641,0.857686 0.208676,0.179878 0.389425,0.327052 0.401665,0.327052 0.01224,0 0.250321,-0.228317 0.529069,-0.507372 l 0.506815,-0.507371 -0.528963,-0.620656 c -0.659747,-0.774112 -0.679,-0.804661 -0.679,-1.077404 0,-0.206881 0.0019,-0.212296 0.550725,-1.536332 0.302899,-0.730796 0.579564,-1.386493 0.61481,-1.457104 0.0909,-0.182106 0.263445,-0.319755 0.480884,-0.38363 0.09931,-0.02918 0.551159,-0.148899 1.0041,-0.266054 l 0.823529,-0.213009 -1.66e-4,-0.417956 -1.66e-4,-0.417957 -1.086342,-0.27429 c -0.597489,-0.150859 -1.089996,-0.277003 -1.09446,-0.28032 -0.02174,-0.01615 -1.257502,-3.0245078 -1.285696,-3.1299234 -0.04328,-0.1618262 0.0035,-0.3857905 0.113476,-0.5435646 0.04522,-0.064857 0.308492,-0.3846248 0.58505,-0.7105941 L 19.007884,6.0395707 18.488073,5.5192183 C 18.050288,5.0809785 17.961578,5.0041426 17.925911,5.0323048 17.902618,5.0506965 17.615467,5.2948687 17.287797,5.5749099 16.946158,5.8668905 16.632996,6.1117835 16.553626,6.1490339 16.274885,6.2798536 16.282443,6.281979 14.661095,5.6168053 13.859772,5.2880551 13.16317,4.9880853 13.11309,4.9502057 12.92792,4.810147 12.888529,4.7097586 12.622547,3.700063 L 12.369775,2.7404844 h -0.411978 -0.411978 l -0.252713,0.958533 C 11.018951,4.7388806 10.971239,4.8577199 10.774437,4.9909085 10.710088,5.0344576 10.04083,5.3298804 9.2871972,5.647404 8.0636728,6.1629041 7.8973406,6.2259687 7.7337691,6.2363837 7.592204,6.2453976 7.522204,6.2354951 7.4256781,6.1927964 7.3489157,6.1588407 7.0597196,5.9229882 6.6753664,5.5808833 6.3313927,5.2747192 6.0401495,5.0242215 6.0281594,5.0242215 c -0.01199,0 -0.2511415,0.229593 -0.5314477,0.5102067 l -0.5096476,0.5102065 0.070597,0.09187 c 0.038829,0.050528 0.2786771,0.3472326 0.5329971,0.6593434 0.25432,0.3121107 0.4889021,0.617301 0.5212933,0.6782006 0.043444,0.08168 0.059177,0.1615582 0.059976,0.3044983 0.00106,0.1894334 -0.011921,0.2256897 -0.5797188,1.6193772 -0.6187754,1.5188138 -0.647301,1.5737008 -0.8794403,1.6921288 -0.059189,0.0302 -0.5022535,0.147422 -0.9845872,0.260503 -0.4823337,0.11308 -0.9049981,0.212277 -0.9392542,0.220437 -0.061269,0.01459 -0.062284,0.02182 -0.062284,0.443375 0,0.235696 0.00603,0.428539 0.01339,0.428539 0.05359,0 1.9384202,0.531818 2.0027742,0.565097 0.1115856,0.0577 0.2453523,0.195754 0.3071563,0.316994 0.028207,0.05533 0.3040412,0.698531 0.6129636,1.429327 0.5178483,1.225036 0.5625489,1.343841 0.5728443,1.522492 0.00991,0.172014 0.00235,0.210089 -0.06732,0.339104 -0.043168,0.07993 -0.3182793,0.412818 -0.6113589,0.739745 -0.2930796,0.326927 -0.5328719,0.604214 -0.5328719,0.616194 0,0.01198 0.229593,0.251122 0.5102067,0.531428 l 0.5102065,0.509648 0.09187,-0.07091 c 0.050528,-0.039 0.3596894,-0.289978 0.687025,-0.557732 0.43257,-0.353834 0.6318204,-0.499199 0.7293691,-0.532117 0.2638666,-0.08904 0.3291699,-0.06968 1.7758212,0.526677 1.4838879,0.611702 1.4936059,0.616123 1.5955699,0.725874 0.12935,0.139227 0.177662,0.283338 0.413817,1.234369 l 0.23199,0.934256 H 12 12.429903 Z"
     id="path34" />
  <path
     style="fill:#ffffff;stroke-width:0.0276817"
     d="M 11.541328,15.710033 C 11.077961,15.644056 10.565165,15.473713 10.186851,15.260097 9.2478327,14.729877 8.6036438,13.864093 8.3528047,12.795155 8.2886532,12.521777 8.279889,12.426203 8.279889,12 c 0,-0.42643 0.00875,-0.521705 0.073055,-0.795774 C 8.6932776,9.7537968 9.7537968,8.6932776 11.204226,8.3529441 11.478295,8.2886356 11.57357,8.279889 12,8.279889 c 0.426203,0 0.521777,0.00876 0.795155,0.072916 1.450045,0.3402703 2.51177,1.4019956 2.85204,2.85204 0.06415,0.273378 0.07292,0.368952 0.07292,0.795155 0,0.426203 -0.0088,0.521777 -0.07292,0.795155 -0.338895,1.444183 -1.408517,2.517438 -2.837816,2.847456 -0.330964,0.07642 -0.967264,0.11025 -1.268051,0.06742 z m 1.084775,-1.538745 c 0.380941,-0.110392 0.642815,-0.260809 0.934236,-0.536609 0.298259,-0.282271 0.490181,-0.599005 0.616347,-1.017171 0.06395,-0.211964 0.07356,-0.292612 0.07356,-0.617508 0,-0.324896 -0.0096,-0.405544 -0.07356,-0.617508 -0.126166,-0.418166 -0.318088,-0.7349 -0.616347,-1.017171 C 13.26954,10.090109 13.013029,9.9426479 12.617508,9.8233141 12.405544,9.759362 12.324896,9.749755 12,9.749755 c -0.324896,0 -0.405544,0.00961 -0.617508,0.073559 -0.418166,0.1261661 -0.7349,0.318088 -1.017171,0.616347 -0.275212,0.290799 -0.4226731,0.54731 -0.5420069,0.942831 C 9.759362,11.594456 9.749755,11.675104 9.749755,12 c 0,0.324896 0.00961,0.405544 0.073559,0.617508 0.1261661,0.418166 0.318088,0.7349 0.616347,1.017171 0.356104,0.337017 0.780673,0.543521 1.253753,0.609807 0.252012,0.03531 0.671984,0.0024 0.932689,-0.0732 z"
     id="path36" />
</svg>
